<?xml version="1.0" standalone="no"?>
<svg xmlns:xlink="http://www.w3.org/1999/xlink" id="wave" style="transform:rotate(180deg); transition: 0.3s" viewBox="0 0 1440 300" version="1.1" xmlns="http://www.w3.org/2000/svg"><defs><linearGradient id="sw-gradient-0" x1="0" x2="0" y1="1" y2="0"><stop stop-color="rgba(170, 67, 27, 1)" offset="0%"/><stop stop-color="rgba(255, 136.853, 5.129, 1)" offset="100%"/></linearGradient></defs><path style="transform:translate(0, 0px); opacity:1" fill="url(#sw-gradient-0)" d="M0,210L48,175C96,140,192,70,288,45C384,20,480,40,576,65C672,90,768,120,864,110C960,100,1056,50,1152,45C1248,40,1344,80,1440,100C1536,120,1632,120,1728,120C1824,120,1920,120,2016,145C2112,170,2208,220,2304,200C2400,180,2496,90,2592,45C2688,0,2784,0,2880,30C2976,60,3072,120,3168,130C3264,140,3360,100,3456,100C3552,100,3648,140,3744,155C3840,170,3936,160,4032,150C4128,140,4224,130,4320,130C4416,130,4512,140,4608,140C4704,140,4800,130,4896,105C4992,80,5088,40,5184,55C5280,70,5376,140,5472,155C5568,170,5664,130,5760,120C5856,110,5952,130,6048,160C6144,190,6240,230,6336,220C6432,210,6528,150,6624,150C6720,150,6816,210,6864,240L6912,270L6912,300L6864,300C6816,300,6720,300,6624,300C6528,300,6432,300,6336,300C6240,300,6144,300,6048,300C5952,300,5856,300,5760,300C5664,300,5568,300,5472,300C5376,300,5280,300,5184,300C5088,300,4992,300,4896,300C4800,300,4704,300,4608,300C4512,300,4416,300,4320,300C4224,300,4128,300,4032,300C3936,300,3840,300,3744,300C3648,300,3552,300,3456,300C3360,300,3264,300,3168,300C3072,300,2976,300,2880,300C2784,300,2688,300,2592,300C2496,300,2400,300,2304,300C2208,300,2112,300,2016,300C1920,300,1824,300,1728,300C1632,300,1536,300,1440,300C1344,300,1248,300,1152,300C1056,300,960,300,864,300C768,300,672,300,576,300C480,300,384,300,288,300C192,300,96,300,48,300L0,300Z"/></svg>